<?xml version="1.0" encoding="utf-8"?>
<!-- Generator: Adobe Illustrator 21.0.1, SVG Export Plug-In . SVG Version: 6.00 Build 0)  -->
<svg version="1.1" id="Layer_1" xmlns="http://www.w3.org/2000/svg" xmlns:xlink="http://www.w3.org/1999/xlink" x="0px" y="0px"
	 viewBox="0 0 193 303" style="enable-background:new 0 0 193 303;" xml:space="preserve">
<style type="text/css">
	.st0{fill:#6D6D6D;}
</style>
<g>
	<path class="st0" d="M190.2,175c0.8,16.2-1.8,28.4-6.1,40.2c-7.8,21.5-18.7,41.3-32.8,59.4c-12.1,15.4-27.7,23.4-47,25
		c-15.7,1.3-30.7-1-44.8-8.2c-6.8-3.5-12.1-8.9-16.9-14.6C25.5,256.4,12.9,233.5,5,208.2c-3.9-12.5-2-24.1,5.8-34.5
		c5.2-6.9,7.5-14.5,7.3-23.1c-0.4-14.7-1-29.3-1.1-44c-0.1-13.3-0.1-26.7,0.6-40c0.6-11.7,2.8-23.1,6.9-34.1
		c4.8-12.9,14-21,26.8-25.3c7.5-2.6,15.2-3.5,23.1-3.5c1.9,0,3,0.5,3.7,2.5c1.4,3.9,3,7.8,4.7,11.5c0.5,1,1.8,1.6,2.8,2.3
		c0.2,0.2,0.6,0.2,0.9,0.3c6.4,2.6,12.7,1.8,18.9-0.6c0.9-0.3,1.8-1.1,2.3-2c2.1-4,3.9-8.1,6-12.1c0.4-0.8,1.5-1.7,2.3-1.7
		c12.1-0.4,23.7,1.6,34.2,8.1c7.7,4.7,13.3,11.3,16.3,19.9c1.6,4.5,3.2,9,4.1,13.6c3.2,16.5,6.3,33.1,9,49.7
		c3.2,19.9,6,39.8,8.8,59.8C189.3,162.8,189.8,170.7,190.2,175z M33.7,27.7c1.6,1.7,3.1,3.5,4.7,5c5,4.7,6.4,10.5,5,17.1
		c-0.6,2.9-1.1,5.7-2.1,8.5c-1.7,4.9-2.3,9.9-2,15c0.3,6.7,0.7,13.3,1.3,19.9c0.4,5.2-1.6,9.3-5.3,12.6c-1.7,1.5-3.4,2.9-5.3,4.1
		c-1.6,0.9-1.6,1.8-1.2,3.4c3.5,12.4,7,24.8,10.1,37.3c6.6,26.6,13,53.3,19.6,80c2.1,8.5,4.4,16.9,8.6,24.7c1.9,3.4,4.3,6.3,7.8,8.2
		c6.1,3.1,12.6,4.6,19.5,4.9c12.4,0.4,23.2-4.2,32.7-11.8c22.9-18.2,37.1-42,44-70.2c4.8-19.6,3.3-39.4,0.8-59.1
		c-1-8.2-2.9-16.3-3.1-24.5c-0.4-18.4-2-36.7-4.7-55c-1.1-7.6-2.7-15.1-7.5-21.3c-8.9-11.4-21-16.4-35.4-16.4c-1.6,0-2.4,0.7-3,2.1
		c-1.5,3.5-3.4,6.9-4.8,10.4c-0.9,2.2-1.6,4.6-1.6,6.9c-0.1,54.3-0.1,108.6-0.1,163c0,1.1,0,2.3,0,3.4c-10.7,0-21,0-31.5,0
		c0-1.2,0-2.3,0-3.3c0-50.5-0.2-101,0.2-151.5c0.1-10.5-1.3-20.1-7.3-28.8c0-0.1-0.1-0.1-0.1-0.2c-0.5-1.5-1.6-2.1-3.1-1.9
		c-4.1,0.4-8.4,0.5-12.4,1.5C47.8,14,39.7,19.3,33.7,27.7z M35.3,232.7c0.3-0.2,0.6-0.4,0.9-0.5c0.2-23.9-3.4-47-12.8-69.8
		c-1.3,6.2-4.5,10.8-7.8,15.4c-5.3,7.4-7.2,15.6-5.5,24.6c0.2,0.9,0.5,2,1,2.7c4.8,6.1,9.6,12.4,14.7,18.3
		C28.6,226.8,32,229.6,35.3,232.7z M83.4,61.8c0,4.8-0.1,9.7,0,14.5c0.1,7.1,5.5,12.6,12.5,12.6c6.9,0,12.5-5.5,12.6-12.5
		c0.1-9.5,0.1-19,0-28.5c-0.1-7.1-5.6-12.6-12.5-12.6c-7,0-12.5,5.5-12.6,12.7C83.4,52.6,83.4,57.2,83.4,61.8z M95.9,114
		c-5.2,0.1-9.4,4.3-9.3,9.4c0,5.2,4.4,9.6,9.5,9.5c5.1-0.1,9.4-4.5,9.4-9.5C105.4,118.3,101.1,113.9,95.9,114z"/>
	<path class="st0" d="M86.5,62.3c0-5.1,0-10.2,0-15.2c0-5.1,4-8.6,9.6-8.5c5.5,0,9.3,3.5,9.3,8.6c0,10.1,0,20.1,0,30.2
		c0,5-3.9,8.4-9.5,8.4c-5.5,0-9.4-3.4-9.5-8.4C86.5,72.2,86.5,67.2,86.5,62.3z"/>
	<path class="st0" d="M96.1,129.8c-3.5,0.1-6.4-2.8-6.4-6.3c0-3.5,2.9-6.4,6.3-6.4c3.4,0,6.2,2.8,6.3,6.1
		C102.4,126.8,99.6,129.7,96.1,129.8z"/>
</g>
</svg>
